<svg xmlns="http://www.w3.org/2000/svg" viewBox="-0.5 -0.5 48 48" height="48" width="48"><defs></defs><title>professional-network-linkedin</title><path d="M12.729166666666666 44.0625h-9.791666666666666v-25.458333333333332h9.791666666666666Zm17.625 -17.625a3.9166666666666665 3.9166666666666665 0 0 0 -3.9166666666666665 3.9166666666666665v13.708333333333332h-9.791666666666666v-25.458333333333332h9.791666666666666v2.908125a12.351208333333334 12.351208333333334 0 0 1 7.81375 -2.9277083333333334c5.800583333333334 0 9.81125 4.308333333333334 9.81125 12.445208333333333V44.0625h-9.791666666666666v-13.708333333333332a3.9166666666666665 3.9166666666666665 0 0 0 -3.9166666666666665 -3.9166666666666665ZM12.729166666666666 9.791666666666666A4.895833333333333 4.895833333333333 0 1 1 7.833333333333333 4.895833333333333 4.895833333333333 4.895833333333333 0 0 1 12.729166666666666 9.791666666666666Z" fill="none" stroke="#000000" stroke-linecap="round" stroke-linejoin="round" stroke-width="1"></path></svg>