<svg viewBox="-0.5 -0.5 48 48" xmlns="http://www.w3.org/2000/svg" height="48" width="48"><path d="M17.793416666666666 14.491666666666667a4.533541666666666 4.533541666666666 0 0 0 0 -6.405708333333333L12.987666666666666 3.286083333333333a4.529625 4.529625 0 0 0 -6.405708333333333 0L3.948 5.922a6.7817083333333334 6.7817083333333334 0 0 0 -0.8597083333333333 8.548125 105.31524999999999 105.31524999999999 0 0 0 29.441583333333334 29.441583333333334 6.793458333333333 6.793458333333333 0 0 0 8.550083333333331 -0.8557916666666666l2.633958333333333 -2.6359166666666667a4.527666666666666 4.527666666666666 0 0 0 0 -6.405708333333333l-4.803791666666666 -4.803791666666666a4.527666666666666 4.527666666666666 0 0 0 -6.405708333333333 0l-1.6019166666666664 1.6019166666666664A107.471375 107.471375 0 0 1 16.1915 16.0975Z" fill="none" stroke="#000000" stroke-linecap="round" stroke-linejoin="round" stroke-width="1"></path></svg>